<?xml version="1.0" encoding="utf-8"?>
<!-- Generator: Adobe Illustrator 16.0.0, SVG Export Plug-In . SVG Version: 6.00 Build 0)  -->
<!DOCTYPE svg PUBLIC "-//W3C//DTD SVG 1.1//EN" "http://www.w3.org/Graphics/SVG/1.1/DTD/svg11.dtd">
<svg version="1.1" id="Layer_1" xmlns="http://www.w3.org/2000/svg" xmlns:xlink="http://www.w3.org/1999/xlink" x="0px" y="0px"
	 viewBox="0 0 919.784 689.838" enable-background="new 0 0 919.784 689.838"
	 xml:space="preserve">
<g>
	<g>
		<path fill="#FFFFFF" d="M609.968,281.94c-0.703-18.519-4.808-36.2-11.679-52.444c-1.681-4.004-3.555-7.93-5.573-11.756
			c-9.723-18.391-23.146-34.52-39.26-47.397c-3.366-2.708-6.842-5.255-10.428-7.642c-22.345-14.945-48.886-24.06-77.446-25.167
			c-1.972-0.096-3.958-0.128-5.944-0.128c-2.305,0-4.597,0.051-6.871,0.162c-77.831,3.508-140.444,66.443-143.474,144.372
			c-0.094,1.97-0.128,3.954-0.128,5.942c0,2.305,0.049,4.598,0.162,6.869c1.426,31.542,12.586,60.581,30.577,84.16
			c2.608,3.426,5.366,6.744,8.266,9.932c0.465,0.511,0.929,1.023,1.408,1.523c2.947,3.184,6.039,6.244,9.276,9.129
			c25.099,22.727,57.873,37.078,93.913,38.697c2.274,0.113,4.566,0.162,6.871,0.162c1.987,0,3.973-0.034,5.944-0.13
			c77.928-3.027,140.845-65.642,144.354-143.474c0.112-2.271,0.161-4.564,0.161-6.869
			C610.097,285.895,610.063,283.91,609.968,281.94z M465.583,425.412c-1.972,0.079-3.958,0.129-5.944,0.129
			c-2.305,0-4.597-0.064-6.871-0.178c-31.731-1.553-60.675-13.919-83.214-33.459c-3.284-2.87-6.438-5.864-9.435-9.02
			c-1.074-1.121-2.13-2.26-3.137-3.412c-2.903-3.221-5.623-6.566-8.171-10.044c-15.586-21.111-25.293-46.822-26.652-74.677
			c-0.113-2.271-0.177-4.564-0.177-6.869c0-1.988,0.047-3.973,0.125-5.942c3.032-70.864,59.911-128.05,130.662-131.54
			c2.274-0.114,4.566-0.179,6.871-0.179c1.987,0,3.973,0.049,5.944,0.128c25.181,1.075,48.613,8.938,68.54,21.836
			c3.635,2.339,7.143,4.852,10.539,7.512c15.556,12.252,28.417,27.79,37.516,45.537c1.987,3.861,3.782,7.816,5.399,11.869
			c5.572,13.97,8.904,29.074,9.577,44.837c0.08,1.97,0.126,3.954,0.126,5.942c0,2.305-0.064,4.598-0.176,6.869
			C593.615,365.506,536.445,422.383,465.583,425.412z"/>
	</g>
	<g>
		<path fill="#FFFFFF" d="M465.583,161.362c-1.972-0.095-3.958-0.144-5.944-0.144c-2.305,0-4.597,0.064-6.871,0.178
			c-64.695,3.491-116.644,55.725-119.656,120.536c-0.095,1.97-0.142,3.954-0.142,5.942c0,2.305,0.064,4.598,0.176,6.869
			c1.329,24.717,9.789,47.559,23.322,66.541l8.955-9.549c-11.181-16.451-18.18-35.959-19.43-56.992
			c-0.146-2.271-0.209-4.564-0.209-6.869c0-1.988,0.049-3.973,0.143-5.942c2.997-57.746,49.207-104.245,106.841-107.688
			c2.274-0.146,4.566-0.211,6.871-0.211c1.987,0,3.973,0.049,5.944,0.145c18.869,0.992,36.551,6.585,51.913,15.698l8.968-9.546
			C508.636,169.211,487.848,162.389,465.583,161.362z M586.148,281.933c-0.609-13.409-3.331-26.269-7.817-38.267l-10.857,7.703
			c3.283,9.673,5.299,19.925,5.859,30.563c0.097,1.97,0.146,3.954,0.146,5.942c0,2.305-0.063,4.598-0.209,6.869
			c-3.444,57.635-49.941,103.846-107.687,106.84c-1.972,0.098-3.958,0.146-5.944,0.146c-2.305,0-4.597-0.064-6.871-0.209
			c-23.706-1.408-45.475-10.126-63.112-23.898l-10.844,7.705c20.298,16.865,45.925,27.52,73.956,29.039
			c2.274,0.113,4.566,0.175,6.871,0.175c1.987,0,3.973-0.046,5.944-0.144c64.809-3.011,117.045-54.955,120.532-119.654
			c0.114-2.271,0.179-4.564,0.179-6.869C586.293,285.887,586.245,283.902,586.148,281.933z M537.1,187.729l-8.825,9.401
			c14.528,10.989,26.35,25.406,34.249,42.047l10.587-7.523C564.558,214.432,552.175,199.422,537.1,187.729z"/>
	</g>
	<g>
		<path fill="#FFFFFF" d="M504.864,296.838c-0.081,0,0.803-4.5,0.803-4.5c0-5.666-0.49-9.215-0.76-11.154
			c-0.064-0.533,0.061-1.061-0.05-1.587c-2.353-14.226-11.256-26.222-23.574-32.724c-4.098-2.197-8.535-3.748-13.26-4.564
			c-0.643-0.128-1.276-0.226-1.932-0.305c-1.938-0.271-3.913-0.403-5.93-0.403c-2.34,0-4.622,0.177-6.869,0.531
			c-19.922,3.027-35.633,18.997-38.244,39.052c-0.271,1.939-0.401,3.924-0.401,5.942c0,2.337,0.178,4.629,0.532,6.87
			c0.191,1.28,0.43,2.549,0.75,3.797c1.107,4.662,2.948,9.034,5.387,13.021c4.114,6.729,9.929,12.463,16.847,16.29
			c0.034,0.018,0.083,0.052,0.116,0.065c4.467,2.484,9.401,4.819,14.62,6.376c0.114,0.026,0.226,1.292,0.336,1.292h0.066
			c2.244,0,4.531-0.83,6.871-0.83c2.018,0,4.005-0.808,5.944-1.076c19.558-2.552,35.22-17.213,38.796-36.432l-0.03,0.338H504.864z
			 M478.209,314.391l-0.224,0.143c-3.541,2.319-7.56,3.973-11.868,4.74c-1.924,0.369-3.911,0.56-5.944,0.56
			c-2.354,0-4.66-0.254-6.871-0.735c-0.962-0.193-1.907-0.449-2.832-0.736c-8.831-2.74-16.056-9.133-19.915-17.397
			c-1.037-2.192-1.839-4.534-2.354-6.968c-0.479-2.209-0.734-4.515-0.734-6.87c0-0.559,0.015-1.106,0.049-1.65
			c0.062-1.458,0.238-2.884,0.51-4.292c2.371-12.975,12.431-23.291,25.276-26.031c1.043-0.237,2.096-0.399,3.174-0.511
			c1.217-0.161,2.448-0.226,3.697-0.226c2.034,0,4.021,0.193,5.944,0.56c2.081,0.37,4.098,0.95,6.02,1.716
			c10.367,4.083,18.132,13.293,20.187,24.492c0.367,1.92,0.559,3.905,0.559,5.942c0,0.384,0,0.767-0.03,1.154
			c-0.067,1.953-0.307,3.858-0.708,5.716c-1.651,7.691-5.992,14.387-12.013,19.015l-0.03,0.032
			c-0.307,0.238-0.624,0.465-0.949,0.688C478.85,313.956,478.529,314.178,478.209,314.391z M504.913,295.568h0.015
			c0-0.018,0-0.018,0-0.033C504.928,295.535,504.928,295.551,504.913,295.568z"/>
	</g>
	<g>
		<path fill="#FFFFFF" d="M466,114.596v84.242h-13v-84.242c0-3.541,2.961-6.408,6.5-6.408C463.038,108.188,466,111.055,466,114.596z
			"/>
		<rect x="453" y="228.838" fill="#FFFFFF" width="13" height="123"/>
		<path fill="#FFFFFF" d="M453,377.838h13v82.746c0,3.54-2.962,6.408-6.5,6.408c-3.539,0-6.5-2.868-6.5-6.408V377.838z"/>
	</g>
	<g>
		<path fill="#FFFFFF" d="M287.44,282.838H364v11h-76.56c-3.542,0-6.41-1.96-6.41-5.5
			C281.031,284.797,283.898,282.838,287.44,282.838z"/>
		<rect x="394" y="282.838" fill="#FFFFFF" width="122" height="11"/>
		<path fill="#FFFFFF" d="M638.232,288.338c0,3.54-2.869,5.5-6.407,5.5H543v-11h88.825
			C635.363,282.838,638.232,284.797,638.232,288.338z"/>
	</g>
</g>
<g>
	<path fill="#FFFFFF" d="M115.846,568.506H98.989v-84.228h33.715c3.093,0,6.069,0.402,8.928,1.204
		c2.858,0.803,5.531,1.938,8.018,3.406c2.486,1.469,4.758,3.231,6.813,5.287s3.818,4.337,5.286,6.843
		c1.469,2.506,2.604,5.189,3.407,8.047c0.802,2.859,1.204,5.835,1.204,8.928c0,2.898-0.362,5.718-1.086,8.458
		c-0.725,2.741-1.762,5.345-3.113,7.812c-1.351,2.467-3.006,4.739-4.963,6.813c-1.958,2.076-4.151,3.877-6.579,5.404l9.339,22.026
		h-17.915l-7.342-16.975l-18.854,0.118V568.506z M115.846,501.135v33.715h16.857c2.31,0,4.483-0.44,6.52-1.321
		c2.036-0.881,3.818-2.085,5.345-3.612c1.527-1.527,2.731-3.319,3.612-5.375s1.321-4.238,1.321-6.549c0-2.31-0.44-4.493-1.321-6.549
		s-2.085-3.847-3.612-5.375s-3.31-2.731-5.345-3.612c-2.036-0.881-4.209-1.322-6.52-1.322H115.846z"/>
	<path fill="#FFFFFF" d="M235.904,568.506h-3.877l-6.226-8.634c-1.527,1.371-3.142,2.653-4.846,3.847
		c-1.703,1.195-3.495,2.232-5.374,3.113c-1.88,0.881-3.809,1.577-5.786,2.085c-1.978,0.508-3.985,0.764-6.021,0.764
		c-4.426,0-8.586-0.744-12.481-2.232c-3.897-1.488-7.304-3.651-10.22-6.491c-2.917-2.838-5.219-6.314-6.902-10.426
		c-1.684-4.111-2.525-8.79-2.525-14.038c0-4.895,0.841-9.388,2.525-13.48c1.683-4.091,3.984-7.606,6.902-10.543
		c2.917-2.937,6.323-5.217,10.22-6.843c3.896-1.625,8.056-2.438,12.481-2.438c2.036,0,4.053,0.255,6.05,0.764
		c1.997,0.509,3.935,1.214,5.815,2.114c1.879,0.901,3.671,1.958,5.375,3.172c1.703,1.214,3.298,2.525,4.787,3.935l6.226-7.459h3.877
		V568.506z M219.751,536.495c0-2.193-0.421-4.317-1.263-6.373c-0.842-2.056-1.988-3.876-3.436-5.462
		c-1.449-1.586-3.143-2.858-5.081-3.818c-1.938-0.959-4.004-1.439-6.197-1.439c-2.193,0-4.258,0.373-6.197,1.116
		c-1.938,0.744-3.623,1.841-5.051,3.289c-1.43,1.449-2.555,3.241-3.377,5.375c-0.822,2.135-1.233,4.572-1.233,7.313
		c0,2.741,0.411,5.179,1.233,7.313c0.822,2.135,1.947,3.926,3.377,5.375c1.429,1.449,3.113,2.546,5.051,3.289
		c1.938,0.744,4.003,1.116,6.197,1.116c2.192,0,4.258-0.479,6.197-1.439c1.938-0.959,3.631-2.232,5.081-3.818
		c1.448-1.586,2.594-3.407,3.436-5.463C219.33,540.812,219.751,538.688,219.751,536.495z"/>
	<path fill="#FFFFFF" d="M264.156,568.506h-16.035v-62.907h3.877l5.286,6.108c2.584-2.35,5.511-4.16,8.781-5.433
		c3.269-1.272,6.686-1.909,10.25-1.909c3.837,0,7.459,0.734,10.866,2.203c3.407,1.468,6.382,3.485,8.928,6.05
		c2.545,2.565,4.552,5.561,6.021,8.986c1.469,3.427,2.203,7.078,2.203,10.955v35.947h-16.035v-35.947
		c0-1.645-0.314-3.201-0.94-4.669c-0.627-1.469-1.489-2.75-2.584-3.847c-1.097-1.096-2.37-1.958-3.818-2.584
		c-1.449-0.626-2.996-0.94-4.64-0.94c-1.684,0-3.27,0.314-4.758,0.94c-1.489,0.626-2.781,1.488-3.876,2.584
		c-1.097,1.097-1.958,2.378-2.584,3.847c-0.627,1.468-0.94,3.025-0.94,4.669V568.506z"/>
	<path fill="#FFFFFF" d="M376.637,560.577c0,4.425-0.843,8.575-2.526,12.452c-1.684,3.876-3.985,7.263-6.901,10.161
		c-2.917,2.897-6.324,5.188-10.22,6.872c-3.897,1.683-8.057,2.526-12.481,2.526l-8.047-0.118v-16.035l7.929,0.118
		c2.505,0,4.64-0.323,6.402-0.969s3.25-1.527,4.464-2.643c1.213-1.116,2.183-2.399,2.908-3.847c0.724-1.448,1.301-2.976,1.732-4.582
		c-0.626,1.019-1.527,1.85-2.702,2.497c-1.175,0.646-2.477,1.174-3.906,1.585c-1.43,0.411-2.917,0.695-4.464,0.852
		c-1.547,0.156-2.986,0.235-4.317,0.235c-4.426,0-8.586-0.764-12.481-2.291c-3.897-1.527-7.304-3.709-10.22-6.549
		c-2.917-2.839-5.219-6.314-6.902-10.426c-1.684-4.112-2.525-8.752-2.525-13.92c0-4.738,0.841-9.143,2.525-13.216
		c1.683-4.072,3.984-7.596,6.902-10.573c2.917-2.975,6.323-5.306,10.22-6.99c3.896-1.683,8.056-2.525,12.481-2.525
		c2.036,0,4.053,0.255,6.05,0.764c1.997,0.509,3.935,1.214,5.815,2.114c1.879,0.901,3.671,1.958,5.375,3.172
		c1.703,1.214,3.298,2.525,4.787,3.935l6.226-7.459h3.877V560.577z M360.484,536.495c0-2.193-0.421-4.317-1.263-6.373
		c-0.842-2.056-1.988-3.876-3.436-5.462c-1.449-1.586-3.143-2.858-5.081-3.818c-1.938-0.959-4.004-1.439-6.197-1.439
		c-2.193,0-4.258,0.373-6.197,1.116c-1.938,0.744-3.623,1.841-5.051,3.289c-1.43,1.449-2.555,3.241-3.377,5.375
		c-0.822,2.135-1.233,4.572-1.233,7.313c0,2.624,0.411,4.983,1.233,7.078c0.822,2.095,1.947,3.887,3.377,5.375
		c1.429,1.488,3.113,2.634,5.051,3.436c1.938,0.803,4.003,1.204,6.197,1.204c2.192,0,4.258-0.479,6.197-1.439
		c1.938-0.959,3.631-2.232,5.081-3.818c1.448-1.586,2.594-3.407,3.436-5.463C360.063,540.812,360.484,538.688,360.484,536.495z"/>
	<path fill="#FFFFFF" d="M413.875,553.117c0.626,0.197,1.253,0.323,1.879,0.382c0.626,0.059,1.253,0.088,1.88,0.088
		c1.565,0,3.073-0.215,4.522-0.646c1.448-0.43,2.81-1.047,4.083-1.85c1.272-0.802,2.408-1.781,3.407-2.937
		c0.999-1.155,1.811-2.438,2.438-3.848l11.747,11.806c-1.488,2.115-3.201,4.015-5.139,5.698c-1.938,1.684-4.034,3.113-6.285,4.288
		c-2.252,1.175-4.621,2.066-7.107,2.672c-2.487,0.607-5.042,0.911-7.665,0.911c-4.426,0-8.586-0.822-12.481-2.467
		c-3.897-1.645-7.304-3.936-10.22-6.873c-2.917-2.937-5.219-6.432-6.902-10.484c-1.684-4.053-2.525-8.507-2.525-13.362
		c0-4.973,0.841-9.516,2.525-13.627c1.683-4.112,3.984-7.616,6.902-10.514c2.917-2.897,6.323-5.148,10.22-6.754
		c3.896-1.605,8.056-2.408,12.481-2.408c2.623,0,5.188,0.314,7.694,0.939c2.505,0.627,4.884,1.527,7.137,2.702
		c2.251,1.175,4.355,2.614,6.314,4.317c1.958,1.704,3.68,3.612,5.169,5.727L413.875,553.117z M422.099,520.048
		c-0.744-0.273-1.479-0.45-2.203-0.529c-0.725-0.078-1.479-0.118-2.261-0.118c-2.193,0-4.258,0.402-6.197,1.204
		c-1.938,0.803-3.623,1.949-5.051,3.437c-1.43,1.488-2.555,3.28-3.377,5.374c-0.822,2.095-1.233,4.455-1.233,7.078
		c0,0.587,0.029,1.253,0.088,1.997c0.059,0.744,0.156,1.498,0.294,2.261c0.137,0.764,0.303,1.498,0.499,2.203
		c0.196,0.705,0.45,1.332,0.764,1.879L422.099,520.048z"/>
	<path fill="#FFFFFF" d="M504.212,568.506h-16.857v-84.228h58.971v16.857h-42.114v16.857h25.256v16.857h-25.256V568.506z"/>
	<path fill="#FFFFFF" d="M572.17,488.507c0,1.488-0.284,2.878-0.852,4.17c-0.568,1.292-1.342,2.418-2.32,3.377
		c-0.979,0.96-2.124,1.724-3.436,2.291c-1.313,0.568-2.712,0.852-4.2,0.852s-2.888-0.284-4.199-0.852
		c-1.313-0.567-2.447-1.331-3.407-2.291c-0.96-0.959-1.723-2.085-2.29-3.377c-0.568-1.292-0.852-2.682-0.852-4.17
		c0-1.448,0.283-2.829,0.852-4.141c0.567-1.312,1.33-2.447,2.29-3.407c0.96-0.959,2.095-1.723,3.407-2.291
		c1.312-0.567,2.711-0.852,4.199-0.852s2.888,0.285,4.2,0.852c1.312,0.568,2.457,1.332,3.436,2.291
		c0.979,0.96,1.752,2.095,2.32,3.407C571.886,485.678,572.17,487.059,572.17,488.507z M569.409,568.506h-16.152v-62.907h16.152
		V568.506z"/>
	<path fill="#FFFFFF" d="M597.662,568.506h-16.035v-62.907h3.877l5.286,6.108c2.584-2.35,5.511-4.16,8.781-5.433
		c3.269-1.272,6.686-1.909,10.249-1.909c3.838,0,7.46,0.734,10.866,2.203c3.407,1.468,6.383,3.485,8.929,6.05
		c2.545,2.565,4.552,5.561,6.021,8.986c1.468,3.427,2.202,7.078,2.202,10.955v35.947h-16.035v-35.947
		c0-1.645-0.313-3.201-0.939-4.669c-0.627-1.469-1.488-2.75-2.585-3.847c-1.097-1.096-2.369-1.958-3.817-2.584
		c-1.449-0.626-2.995-0.94-4.641-0.94c-1.684,0-3.27,0.314-4.757,0.94c-1.489,0.626-2.781,1.488-3.877,2.584
		c-1.097,1.097-1.959,2.378-2.585,3.847c-0.626,1.468-0.939,3.025-0.939,4.669V568.506z"/>
	<path fill="#FFFFFF" d="M710.025,568.506h-3.877l-6.227-8.634c-1.526,1.371-3.142,2.653-4.846,3.847
		c-1.703,1.195-3.494,2.232-5.374,3.113c-1.88,0.881-3.809,1.577-5.785,2.085c-1.979,0.508-3.985,0.764-6.021,0.764
		c-4.426,0-8.586-0.833-12.481-2.497c-3.897-1.664-7.304-3.974-10.221-6.931c-2.918-2.956-5.219-6.461-6.901-10.514
		c-1.685-4.053-2.525-8.467-2.525-13.245c0-4.738,0.841-9.143,2.525-13.216c1.683-4.072,3.983-7.596,6.901-10.573
		c2.917-2.975,6.323-5.306,10.221-6.99c3.896-1.683,8.056-2.525,12.481-2.525c1.409,0,2.867,0.117,4.375,0.352
		c1.508,0.235,2.976,0.617,4.405,1.146c1.43,0.529,2.771,1.225,4.023,2.085c1.253,0.861,2.311,1.919,3.172,3.171v-29.368h16.153
		V568.506z M693.872,536.495c0-2.193-0.421-4.317-1.263-6.373s-1.987-3.876-3.436-5.462c-1.449-1.586-3.143-2.858-5.081-3.818
		c-1.938-0.959-4.004-1.439-6.196-1.439c-2.194,0-4.259,0.392-6.197,1.175c-1.938,0.784-3.622,1.909-5.051,3.377
		c-1.431,1.468-2.556,3.26-3.378,5.375c-0.822,2.114-1.233,4.503-1.233,7.166c0,2.311,0.411,4.503,1.233,6.578
		c0.822,2.076,1.947,3.897,3.378,5.463c1.429,1.566,3.112,2.8,5.051,3.7c1.938,0.901,4.003,1.351,6.197,1.351
		c2.192,0,4.258-0.479,6.196-1.439c1.938-0.959,3.632-2.232,5.081-3.818c1.448-1.586,2.594-3.407,3.436-5.463
		C693.451,540.812,693.872,538.688,693.872,536.495z"/>
	<path fill="#FFFFFF" d="M747.265,553.117c0.625,0.197,1.252,0.323,1.879,0.382c0.626,0.059,1.253,0.088,1.88,0.088
		c1.565,0,3.073-0.215,4.522-0.646c1.448-0.43,2.81-1.047,4.082-1.85c1.272-0.802,2.408-1.781,3.407-2.937
		c0.998-1.155,1.811-2.438,2.438-3.848l11.747,11.806c-1.488,2.115-3.201,4.015-5.14,5.698c-1.938,1.684-4.033,3.113-6.284,4.288
		c-2.253,1.175-4.621,2.066-7.107,2.672c-2.487,0.607-5.042,0.911-7.665,0.911c-4.426,0-8.586-0.822-12.481-2.467
		c-3.897-1.645-7.304-3.936-10.221-6.873c-2.917-2.937-5.218-6.432-6.901-10.484s-2.525-8.507-2.525-13.362
		c0-4.973,0.842-9.516,2.525-13.627c1.684-4.112,3.984-7.616,6.901-10.514c2.917-2.897,6.323-5.148,10.221-6.754
		c3.896-1.605,8.056-2.408,12.481-2.408c2.623,0,5.188,0.314,7.694,0.939c2.506,0.627,4.885,1.527,7.137,2.702
		c2.251,1.175,4.355,2.614,6.314,4.317c1.957,1.704,3.68,3.612,5.168,5.727L747.265,553.117z M755.487,520.048
		c-0.744-0.273-1.479-0.45-2.202-0.529c-0.726-0.078-1.479-0.118-2.262-0.118c-2.193,0-4.259,0.402-6.197,1.204
		c-1.938,0.803-3.622,1.949-5.051,3.437c-1.43,1.488-2.555,3.28-3.378,5.374c-0.822,2.095-1.233,4.455-1.233,7.078
		c0,0.587,0.029,1.253,0.089,1.997c0.059,0.744,0.155,1.498,0.293,2.261c0.137,0.764,0.303,1.498,0.5,2.203
		c0.195,0.705,0.449,1.332,0.763,1.879L755.487,520.048z"/>
	<path fill="#FFFFFF" d="M801.419,568.506h-16.035v-62.907h3.877l5.286,7.459c2.584-2.35,5.521-4.16,8.811-5.433
		c3.289-1.272,6.696-1.909,10.22-1.909h14.156v15.977h-14.156c-1.684,0-3.27,0.314-4.757,0.94c-1.489,0.626-2.781,1.488-3.877,2.584
		c-1.097,1.097-1.959,2.389-2.585,3.877c-0.626,1.488-0.939,3.074-0.939,4.757V568.506z"/>
</g>
</svg>
